<svg xmlns="http://www.w3.org/2000/svg" viewBox="0 0 2200.18 576.01"><defs><style>.cls-1{fill:#fff;}</style></defs><g id="Layer_2" data-name="Layer 2"><g id="Layer_1-2" data-name="Layer 1"><path class="cls-1" d="M1251.23,183.47c3.41-1.39,5.9-2.22,8.21-3.37,31.91-15.9,66-19.83,100.73-15.95,32.23,3.59,59.4,19.08,81.52,42.64,29.16,31.06,44.89,68.43,49.43,110.54,2.76,25.57,3.46,51.25-.2,76.77-6.93,48.26-23.72,92.06-59.72,126.67-28.45,27.36-62.63,43.56-101.07,51-27.67,5.36-55.73,4.45-83.68,3.57-36.42-1.16-71.94-8.86-107.54-15.9-4.26-.84-5-2.77-5-6.7,1-91.77,2.48-183.55,2.71-275.33.14-54.79-1.64-109.59-2.59-164.38a103.11,103.11,0,0,0-7.16-36.53c-4.64-11.7-12.5-19.36-25.16-21.74-5.06-.95-10-2.51-15-3.61-4.06-.89-5.67-3.19-5.83-7.37-.46-11.91-.59-11.84,11.08-14.07q68.85-13.15,137.69-26.39c5.88-1.13,11.84-1.88,17.69-3.13,3.44-.74,4.7.73,4.83,3.73.11,2.83,0,5.66-.06,8.49q-.45,82.22-.89,164.42C1251.22,178.65,1251.23,180.47,1251.23,183.47Zm.3,193.81h.57c0,32.48-.22,65,.08,97.44.19,20.14,1.19,40.28,1.78,60.43.11,3.64,1,6.83,5.12,7.45,22.33,3.36,43.16.95,60.49-15.5,10.42-9.89,18.32-21.53,24.53-34.35,16-33,24-68.1,25.66-104.48s2-72.62-9.65-107.83c-6.06-18.34-13.64-35.81-27.11-50-9.7-10.24-21.14-18.34-35.3-20.23a86.86,86.86,0,0,0-38.52,3.37c-7.47,2.42-7.62,2.25-7.63,9.84Q1251.51,300.33,1251.53,377.28Z"/><path class="cls-1" d="M.72,36.91v-26A88.1,88.1,0,0,1,10,10q132.44-.15,264.87-.17,82.72,0,165.46.22c7.28,0,7.5.09,7.66,7.43q1.33,59.46,2.53,118.93c.2,9.66.23,19.33.52,29,.07,2.61-.71,3.88-3.31,4.54-5.32,1.36-10.5,3.24-15.82,4.58-7.05,1.78-9.14.8-12.06-6-5-11.61-9.42-23.48-14.65-35-9.3-20.47-20.81-39.55-38.09-54.41s-37.24-24.08-60.36-24.35c-32.3-.37-64.6-.09-98.09-.09-3.81,71.66-4.74,144.14-4.52,216.94,10.88,0,21.31.24,31.74-.07,10.15-.3,20.3-1,30.43-1.82,19.52-1.57,32.83-12.38,42.22-28.86,7.26-12.74,10.85-26.79,14.11-40.89.91-3.91,2.59-5.26,6.35-5.18,6.65.15,13.3.05,20.39.05V383.76c-8,0-15.89.12-23.79-.16-.91,0-2.1-2.19-2.53-3.55-3.47-11.1-6.21-22.46-10.31-33.31a66.21,66.21,0,0,0-20.38-28.56,35.55,35.55,0,0,0-19.62-8c-22.55-1.81-45.13-3.26-68.19-4.88-.2,2.38-.46,3.81-.42,5.22,1.33,47.12,2.15,94.27,4.33,141.35.73,15.81,3.91,31.72,7.81,47.12,5.32,21,18.47,34.51,41.25,36.95,8.74.94,17.35,3.1,26,4.57,3.51.59,5.41,2.44,5.5,6,.11,4.79.12,9.59.1,14.38,0,3.88-2.24,5-5.86,5-16.49,0-33,.3-49.47.28Q121.19,566,8.52,565.76c-7.63,0-8-.42-8.34-8.18C-.49,542-.06,541.37,15.29,538.19,20.66,537.07,26,536,31.45,535c19.34-3.42,30.6-15.73,36.6-33.56C74.56,482.13,76,462,77,441.84c4.09-80.25,3.35-160.57,2.44-240.87-.32-28.3-1.66-56.62-3.63-84.86-.89-12.83-3.62-25.71-7-38.17C62.59,54.77,46.55,42.51,22.9,39.82,15.8,39,8.72,38,.72,36.91Z"/><path class="cls-1" d="M582.12,575.6c-29.85,1.28-59-3.4-86.55-16.45C451.2,538.09,422.08,503.5,406,457.47c-12.71-36.43-16.14-74-13.25-112.26,2.1-27.76,7.65-54.75,20.09-79.84,28.46-57.48,73.61-93.38,137.32-104.65,41.57-7.35,82.4-4.55,121.65,11.47,49.91,20.36,80.41,58.55,97.09,108.81,12,36,13.9,73,11.31,110.54-2.69,39-14.66,74.72-37,106.63-31.1,44.36-74.65,68.55-127.75,76.38a140.91,140.91,0,0,1-16.45,1C593.52,575.73,588,575.6,582.12,575.6ZM515.05,360.85c-.42,37.07,1.16,73.94,11.05,110,5.44,19.84,12.19,39.15,25.44,55.36,12.15,14.87,27.41,22.37,47.06,18.65,14.25-2.7,24.09-11.79,32.11-22.91,12.49-17.29,17.67-37.5,21.29-58.08,6.75-38.42,7.15-77.21,6.12-116.06-.81-30.36-3.59-60.5-12.06-89.82-6.31-21.86-15.35-42.39-33-57.62-5.15-4.43-11.44-8.48-17.89-10.31-21.73-6.13-41,2.37-53.68,22.63C530,230.91,524.93,251.38,521,272.24,515.58,301.54,515.2,331.19,515.05,360.85Z"/><path class="cls-1" d="M1643,351.5c-.19,34.51,4.58,67.56,20.68,98.06,13.41,25.44,33.58,44.12,59.88,55.77,16.59,7.35,34.36,8.68,52.31,8.87,26.55.27,51.1-6,73.15-21.15,1.1-.75,2.3-1.35,3.45-2,8-4.61,8.88-4.62,13-.16,6.87,7.52,7.65,11.23,2.24,17.83a179.15,179.15,0,0,1-57.05,46.2c-35.59,18.35-73.56,23.12-113,20.31-69.17-4.94-136.21-48.63-163.55-130.4-8.48-25.4-10.25-51.46-10.62-77.83-.54-39.37,7.84-76.71,26.52-111.44,29.2-54.29,74.81-85.79,135.4-95.66,28.43-4.63,56.85-3.94,84.56,4.47,42.84,13,71.63,41.78,88.91,82.34,13.36,31.36,18.7,64.41,18.4,98.46,0,4.38-1.3,5.54-5.69,5.54q-110.7.06-221.41.45C1647.79,351.15,1645.51,351.37,1643,351.5Zm-.58-34,114.79-2.78a9.72,9.72,0,0,0,.61-2.09c-1.2-23.11-2.15-46.25-7.17-69-3.29-14.84-7.41-29.41-16.75-41.82-11.1-14.75-28.07-17.78-43.75-8-9,5.63-15.44,13.62-20.77,22.59-11,18.56-17.08,39-21,60C1645.82,289.67,1644.43,303.05,1642.38,317.54Z"/><path class="cls-1" d="M1900.63,495.15c0-18-1.48-38.36-1.71-56.35-.05-3.66,1.13-5.56,4.45-6.51,1.28-.36,2.48-1,3.76-1.32,12-3.07,12.89-2.64,17.45,8.69,8.17,20.28,17.43,40,30.82,57.44,13.76,17.94,30.53,31.92,53.4,36,18.2,3.23,36.29,3.56,53.41-6.12,33.52-19,34.28-65.52,15.77-83.86a105.85,105.85,0,0,0-31.68-21.43c-20-8.95-40.36-17.24-60.53-25.88-15.2-6.5-29.75-14-42.44-24.91-24.56-21.08-35.53-48-36.87-80-2-48.39,25.53-93.89,71.29-116.13,24.42-11.86,50.45-16.92,77.31-17.43,36.85-.7,73.08,3.91,108.26,15.4,14.53,4.74,14.44,4.83,14.77,20,.62,28.64,1.25,57.29,2.09,85.93.12,3.95-.91,5.84-4.78,7.2-14.85,5.23-15.45,5.19-21.11-9.48-7-18.21-14.54-36.17-26.39-51.88-17.06-22.6-39.5-35-68.17-33.86-24,.92-43.33,20.33-46.87,44.21s5.08,41.5,24.13,55.12c18.29,13.08,38.66,22.07,59.16,30.87,21.11,9.06,42.2,18.16,61,31.59,28.15,20.06,42.31,47.2,42.94,81.92.48,26.36-3.39,51.35-17.21,74.29-17.36,28.81-43.21,46.42-74.42,57.13-17.46,6-35.26,9.57-53.85,9.24-17.15-.31-34.37,1-51.45-.11-32.53-2-64.19-8.94-95-19.53-4.56-1.56-6.87-3.76-6.76-9.18Z"/><path class="cls-1" d="M1018.28,565.86c-21.73,0-42.38,0-63,0q-83-.08-165.92-.2c-9.07,0-9.21-.31-9.22-9.27,0-14.25,0-14.25,13.87-17.19a8.57,8.57,0,0,1,1-.21c21.93-2.45,34.71-13.53,36.87-40.88,2-25.88,3.11-51.9,3.33-77.86q.57-67.46-.63-134.92a270.66,270.66,0,0,0-4.65-43.1C827.13,227,818,216.89,801.75,214.64a128.2,128.2,0,0,1-17.57-3.71c-1.67-.47-2.94-2.22-3.75-3.84a4.21,4.21,0,0,1-.39-1.22c-.95-13.23-.6-14,12.33-16.59q75.09-15.17,150.25-30.05c3.39-.68,6.87-.91,11.2-1.46-1,27.39-1.89,54.2-2.82,81l.91.3c2.15-3.82,4.28-7.65,6.46-11.45,14.26-24.86,32.28-46,58.17-59.56,25.07-13.15,51.12-14.54,78-7.24a34.87,34.87,0,0,1,3.32,1.1c11.23,4.27,12.45,6.4,8.29,17.58q-17.33,46.5-35.06,92.84c-2.43,6.38-2.61,6.17-8.88,3.82-13.36-5-26.47-11.13-40.23-14.54-19.8-4.89-39.32-1.89-57.85,7-8.74,4.18-13.18,10.23-13.48,20.55-1.77,61.82-1.92,123.61,1.71,185.36a240.14,240.14,0,0,0,5.68,38.92c3.28,14.45,13.14,22.69,28.17,24.28,9.43,1,18.83,2.29,28.28,3.15,2.84.26,3.79,1.36,3.78,4C1018.26,551.61,1018.28,558.4,1018.28,565.86Z"/></g></g></svg>