<svg xmlns="http://www.w3.org/2000/svg" viewBox="0 0 1490.6 209.71"><defs><style>.cls-1{fill:#0b9601;}.cls-2{fill:#0c9602;}.cls-3{fill:#fff;}.cls-4{fill:#0e9704;}.cls-5{fill:#0d9703;}</style></defs><g id="Layer_2" data-name="Layer 2"><g id="Layer_1-2" data-name="Layer 1"><path class="cls-1" d="M209.53,69.79H140V209.4H69.74V70H0V.1H209.75c0,6.8,0,13.58,0,20.36q-.13,24.72-.33,49.44Z"/><path class="cls-1" d="M209.41,69.9,272,69.69c2.48,0,5-.06,7.45-.09l-.12-.12c.18,1.8.52,3.59.52,5.38q.06,29.72,0,59.42v5.33H419.72a31.86,31.86,0,0,1,.37,3.24q0,31.46,0,62.91a24.68,24.68,0,0,1-.34,3l-1.16.83c-1.83.06-3.66.16-5.49.16H209.72v-5.56q0-64.2,0-128.39c0-2-.12-4-.19-6Z"/><path class="cls-2" d="M279.47,69.6q.18-26.73.35-53.45c0-5.29,0-10.59,0-16.15h140V69.47c-1.1.1-2.05.27-3,.27q-67.24,0-134.49,0c-1,0-2-.16-3-.25Z"/><path class="cls-3" d="M997.49,86.52,967.33,98.34c-1.68-3.35-3-6.55-4.81-9.5-7.48-12.46-24.39-12.34-30.6.77-7.36,15.51-7.3,31.79-.08,47.36,5.63,12.12,21.16,13.77,30.06,3.75,2.85-3.2,5.08-6.95,7.89-10.86l28.4,15c-8.17,16.63-20.33,28-38.71,30.56a83,83,0,0,1-25.75-.38c-17.3-3.07-29.5-13.58-36.18-29.78-8.71-21.13-8.9-42.64.16-63.65,8.06-18.7,23-29,43.2-30.94a83.45,83.45,0,0,1,17.94.34C978.55,53.38,992.8,66.58,997.49,86.52Z"/><path class="cls-3" d="M1437.68,174.62H1406v-4.84c0-35.13.06-70.27-.08-105.4,0-3.55,1-5.27,4.37-6.51,9-3.26,17.88-7,27.32-10.7V87.44c5.76-2.07,11.11-4.79,16.77-5.88,19-3.68,32.45,6,35.23,25.13a119.93,119.93,0,0,1,1,16.42c.11,17,0,34,0,51.29h-31.76c0-5.78,0-11.56,0-17.34-.07-13,.09-26-.35-38.95-.26-7.74-4.31-10.94-11.53-10.46-4.39.28-7.25,2.55-8.22,6.71a43.48,43.48,0,0,0-1,9.39C1437.63,140.55,1437.68,157.34,1437.68,174.62Z"/><path class="cls-2" d="M818.76,174.57H787.61c-.09-1.48-.26-2.91-.26-4.34,0-35.33,0-70.67-.1-106,0-3.6,1.1-5.24,4.45-6.46,8.88-3.22,17.6-6.87,26.93-10.57V87.5c5.83-2.1,11.18-4.83,16.84-5.93,18.93-3.65,31.89,5.61,35.25,24.62a52.64,52.64,0,0,1,.92,8.94c.09,19.65.05,39.3.05,59.29H839.92c0-10.14,0-20.1,0-30.07,0-8.83.12-17.67-.33-26.48-.38-7.48-4.26-10.61-11.28-10.24-4.64.24-7.5,2.7-8.54,7a39,39,0,0,0-1,8.9C818.71,140.38,818.76,157.21,818.76,174.57Z"/><path class="cls-3" d="M1098,82.87h31.78v4.89c0,14.82,0,29.63,0,44.45a60.76,60.76,0,0,0,.7,9.44c.94,5.66,4,8.17,9.49,8.27,5.76.12,9.15-2.4,10.19-8.09a49.54,49.54,0,0,0,.54-9c0-16.46,0-32.92,0-49.76h31.59v91.42h-31.21c-.21-1.53-.43-3.1-.72-5.2l-3.8,2.26a35.88,35.88,0,0,1-27.9,4c-11.39-2.84-19.12-12.57-19.94-26.94-.89-15.77-.59-31.61-.77-47.42C1098,95.26,1098,89.29,1098,82.87Z"/><path class="cls-4" d="M560.13,174.62H526.07V82H492V52.43H594.18V81.72h-34Z"/><path class="cls-3" d="M1289.77,174.76h-29.48a20.88,20.88,0,0,1-2.32-.34c0-10.4,0-20.69,0-31,0-8.66.13-17.34-.39-26-.45-7.37-4.5-10.36-11.61-9.81a8.4,8.4,0,0,0-8.11,6.89,38.47,38.47,0,0,0-1,8.9c-.09,17,0,33.95,0,51.11h-31.22V83h30.82l.64,4.38c5.55-2,10.91-4.69,16.58-5.79,18.82-3.62,32,5.82,35.1,24.76a83.35,83.35,0,0,1,1,12.93C1289.83,137.54,1289.77,155.84,1289.77,174.76Z"/><path class="cls-5" d="M674.92,137.85H620.44c0,9,5.41,15,14.35,14.35,8.13-.55,16.14-2.93,25.33-4.71l11.12,18.44a65.76,65.76,0,0,1-32.87,10.63c-27.23,1.52-44.3-13.17-47.14-40.34-1.05-10-.34-20,3.26-29.51C601,89.38,615.83,80,635.26,80.85c18.11.77,31.1,10.63,35.74,28.63C673.29,118.38,673.6,127.78,674.92,137.85ZM645.74,117.9c-1.53-10-5.63-13.87-13.86-13.63-7,.21-10.69,4.38-11.73,13.63Z"/><path class="cls-3" d="M1388.18,154.68c-12.24,18.68-26.35,24.91-47.23,21-12.8-2.39-22.58-9.21-27.67-21.33-7.31-17.4-7.57-35.19.58-52.31,7.65-16.06,22.09-21.26,38.86-21.2,15.57,0,26.75,7.55,34.55,21.14l-21.38,16.23c-1.73-2.52-3.13-5-4.91-7.09-6.3-7.56-16-6.07-19.32,3.15a43.24,43.24,0,0,0-.47,27.51c3,10,12.71,12.43,20.4,5.37,2.43-2.23,4.41-5,6.91-7.81,3.18,2.45,6.45,4.94,9.7,7.47S1384.7,151.94,1388.18,154.68Z"/><path class="cls-5" d="M768.28,102.15l-21.23,16.08c-1.67-2.43-3.1-4.85-4.84-7-6.14-7.59-16.12-6.2-19.37,3a42.75,42.75,0,0,0-.21,28.48c3,8.9,12,11.24,19.29,5.17,2.78-2.32,5-5.32,7.85-8.45l19.29,15c-7.94,15.76-23,23.71-41.49,22.14-17.76-1.5-30.2-11.11-35.31-27.72-4.28-13.92-4.33-28,.51-41.74,6-17.1,19.13-24.88,36.6-26.17S760.69,87.27,768.28,102.15Z"/><path class="cls-3" d="M1076,117.15c-2.3-1.78-4-3.33-5.92-4.55-10.67-6.8-20.91-1.69-21.24,10.84-.32,12-.1,24-.12,36v15.1h-31.36V82.92h31c.2,1.74.39,3.44.66,5.79,10.68-8.82,21.87-10.34,34.25-4C1080.85,95.41,1078.49,105.93,1076,117.15Z"/><path class="cls-2" d="M418.61,209.54l1.16-.83Z"/></g></g></svg>