<?xml version="1.0" encoding="utf-8"?>
<!-- Generator: Adobe Illustrator 23.0.4, SVG Export Plug-In . SVG Version: 6.00 Build 0)  -->
<svg version="1.1" id="Layer_1" xmlns="http://www.w3.org/2000/svg" xmlns:xlink="http://www.w3.org/1999/xlink" x="0px" y="0px"
	 viewBox="0 0 826.2 113.5" style="enable-background:new 0 0 826.2 113.5;" xml:space="preserve">
<style type="text/css">
	.st0{fill:#A6B636;}
	.st1{fill:#5EB2C1;}
	.st2{fill:#DF9D2C;}
	.st3{fill:#E6CD2F;}
	.st4{fill:#EC5426;}
</style>
<g transform="matrix( 1, 0, 0, 1, 0,0) ">
	<g>
		<g id="Layer4_0_FILL">
			<path class="st0" d="M104,113.5L169,0.7H65L0,113.5H104z"/>
		</g>
	</g>
</g>
<g transform="matrix( 1, 0, 0, 1, 0,0) ">
	<g>
		<g id="Layer3_0_FILL">
			<path class="st1" d="M104,113.5L169,0.7H91L26,113.5H104z"/>
		</g>
	</g>
</g>
<g transform="matrix( 1, 0, 0, 1, 0,0) ">
	<g>
		<g id="Layer2_0_FILL">
			<path class="st2" d="M169,0.7h-52L52,113.5h52L169,0.7z"/>
		</g>
	</g>
</g>
<g transform="matrix( 1, 0, 0, 1, 0,0) ">
	<g>
		<g id="Layer1_0_FILL">
			<path class="st3" d="M169,0.7h-26L78,113.5h26L169,0.7z"/>
		</g>
	</g>
</g>
<g transform="matrix( 1, 0, 0, 1, 0,0) ">
	<g>
		<g id="Layer0_0_FILL">
			<path class="st4" d="M493.1,67.7c0-10.9-3-19.8-9.1-26.7c-6.4-7.3-15.2-11-26.2-11c-11.9,0-21.6,3.9-29.1,11.7
				c-7.5,7.7-11.2,17.7-11.2,29.9c0,11.7,3.8,21.4,11.5,29.3c8,8.2,18.4,12.3,31.2,12.3c8.2,0,16-2,23.4-6c2.3-1.2,4.4-2.6,6.3-4.1
				l2.2-1.9l-8.2-13.7l-1.7,1.4c-1.4,1.1-3,2.2-4.7,3.1c-5.3,2.9-10.6,4.4-15.9,4.4c-6.3,0-11.5-1.8-15.8-5.4c-4.6-3.9-7.3-9.2-8-16
				h54.8C493,71.7,493.1,69.2,493.1,67.7 M468.3,49.7c2.9,3,4.4,6.9,4.6,11.6h-34.5c1.1-5,3.4-9,6.8-11.8c3.4-2.8,7.7-4.2,12.8-4.2
				C462,45.2,465.5,46.7,468.3,49.7 M579.8,18.9V0.6h-17.2v18.2H579.8 M582.4,93.7c-0.6-0.6-0.9-1.4-0.9-2.5V42.4
				c0-3.7-0.8-6.3-2.5-8c-1.7-1.7-4.4-2.6-8.1-2.6h-42.2v-1.5c0-5.1,1.8-8.8,5.3-11c2.4-1.5,5.6-2.3,9.5-2.3c1.7,0,3.2,0.1,4.5,0.4
				V0.5c-1.8-0.3-4-0.5-6.7-0.5c-8.2,0-15,1.6-20.3,5c-8,4.9-12.1,13.1-12.1,24.5v2.3H499v15.8h9.8v63.7h19.8V47.5h29.6
				c1.1,0,1.9,0.3,2.5,0.9s0.9,1.4,0.9,2.5v49.7c0,3.7,0.8,6.4,2.5,8.1c1.7,1.6,4.4,2.5,8.1,2.5H591V94.5h-6.1
				C583.8,94.5,583,94.2,582.4,93.7 M633.1,31.8v15.8h10.3v34.6c0,11.7,4.1,20,12.3,24.9c5.5,3.3,12.4,5,20.7,5
				c2.4,0,4.4-0.2,6.1-0.5V94.2c-0.9,0.2-2.1,0.3-3.6,0.3c-4,0-7.3-0.8-9.9-2.5c-3.9-2.5-5.8-6.6-5.8-12.4V47.5h18.1V31.8h-18.1
				V10.1h-19.3v21.6H633.1 M592.6,17.5h6.2c2.3,0,3.4,1.1,3.4,3.4v79.8c0,3.7,0.8,6.4,2.5,8.1c1.6,1.6,4.3,2.5,8.1,2.5h18.7V94.5
				h-6.1c-1.1,0-1.9-0.3-2.5-0.9c-0.6-0.6-0.9-1.4-0.9-2.5v-80c0-3.6-0.8-6.3-2.6-8c-1.7-1.7-4.4-2.6-8-2.6h-18.8V17.5 M199.1,10.1
				h-19.3v21.6h-10.8v15.8h10.3v34.6c0,11.7,4.1,20,12.4,24.9c5.5,3.3,12.4,5,20.7,5c2.4,0,4.4-0.2,6-0.5V94.2
				c-0.9,0.2-2.1,0.3-3.6,0.3c-4,0-7.3-0.8-9.9-2.5c-3.9-2.5-5.9-6.6-5.9-12.4V47.5h18.1V31.8h-18.1V10.1 M290.3,31.8v36.5
				c0,7.5-1.9,13.8-5.8,18.8c-4.1,5.4-9.6,8-16.5,8c-4.6,0-7.9-1.5-9.8-4.5c-1.7-2.5-2.5-6.5-2.5-11.8V42.2c0-3.6-0.8-6.2-2.5-7.9
				c-1.7-1.7-4.3-2.6-8-2.6h-18.8v15.8h6.2c2.3,0,3.5,1.1,3.5,3.4v31.9c0,20.2,9.1,30.2,27.4,30.2c6.4,0,12.2-1.7,17.5-5.2
				c4.6-3,7.9-6.8,10-11.3h0.3l-0.1,1.1c0,0.9,0,1.7,0,2.5v2.2c0,2.8,0.9,5,2.7,6.5c1.8,1.5,4.4,2.3,7.8,2.3h18.2V94.5h-6.2
				c-1.1,0-1.9-0.3-2.5-0.9s-0.9-1.4-0.9-2.5V31.8H290.3 M347.5,3.2c-1.7-1.7-4.4-2.6-8-2.6h-18.9v16.9h6.2c2.3,0,3.5,1.1,3.5,3.4
				v90.4H349v-4c0-1.3-0.1-2.6-0.2-3.8l-0.1-1.5h0.3l1.3,1.8c1.3,1.4,2.7,2.7,4.3,3.8c5.1,3.7,11.2,5.6,18.1,5.6
				c10.6,0,19.3-3.8,26.1-11.3c6.9-7.7,10.3-17.8,10.3-30.3c0-12.4-3.2-22.4-9.5-30c-6.4-7.7-15-11.5-25.6-11.5
				c-7,0-13.1,1.9-18.2,5.5c-2.6,1.8-4.5,3.7-5.7,5.5h-0.3c0.2-1.9,0.3-4.1,0.3-6.7V11.2C350.1,7.6,349.2,4.9,347.5,3.2 M355.6,52.9
				c3.6-4,8.2-6,13.8-6c5.9,0,10.7,2.3,14.3,6.8c3.7,4.6,5.5,10.6,5.5,18.1c0,7.6-2,13.7-6,18.2c-3.7,4.3-8.3,6.4-14,6.4
				c-6.3,0-11.2-2.5-14.9-7.6c-3.3-4.6-4.9-10.2-4.9-16.8C349.5,63.7,351.5,57.3,355.6,52.9 M762.5,67.7c0-10.9-3-19.8-9-26.7
				c-6.4-7.3-15.1-11-26.2-11c-11.9,0-21.6,3.9-29.1,11.7c-7.5,7.7-11.2,17.7-11.2,30c0,11.7,3.8,21.4,11.5,29.2
				c8,8.2,18.4,12.3,31.2,12.3c8.2,0,16-2,23.4-6c2.3-1.2,4.4-2.6,6.3-4.1l2.2-1.9l-8.2-13.7l-1.7,1.4c-1.5,1.1-3,2.1-4.7,3
				c-5.3,3-10.6,4.5-15.9,4.5c-6.3,0-11.5-1.8-15.8-5.5c-4.6-3.9-7.3-9.2-8-15.9H762C762.3,71.7,762.5,69.3,762.5,67.7 M737.7,49.8
				c2.9,3,4.4,6.8,4.5,11.5h-34.4c1.1-5,3.3-8.9,6.8-11.8c3.4-2.8,7.7-4.2,12.7-4.2C731.4,45.3,734.9,46.8,737.7,49.8 M822.6,30.7
				c-5.9,0-11.1,2-15.8,6c-4.4,3.7-7.5,8.5-9.4,14.5H797c0.2-1.3,0.3-3,0.3-5v-4.7c0-3.3-0.9-5.8-2.7-7.4c-1.7-1.6-4.4-2.4-7.9-2.4
				h-18.1v16.9h6.2c2.3,0,3.4,1.1,3.4,3.4v59.2H798V79.8c0-4.5,0.6-8.8,1.7-13c1.7-5.5,4.7-9.8,9-12.8c3.8-2.6,8-3.9,12.6-3.9
				c1.9,0,3.5,0.1,4.8,0.3V31C825,30.8,823.8,30.7,822.6,30.7z"/>
		</g>
	</g>
</g>
</svg>
