<svg xmlns="http://www.w3.org/2000/svg" viewBox="0 0 40.1 30"><defs><style>.cls-1{fill:#ff3d00;}.cls-2{fill:#fff;}</style></defs><g id="Layer_2" data-name="Layer 2"><g id="Layer_1-2" data-name="Layer 1"><path class="cls-1" d="M39.2,24.9a5,5,0,0,1-4.2,4A104.08,104.08,0,0,1,20,30,106.55,106.55,0,0,1,5,28.9a5,5,0,0,1-4.2-4A58.53,58.53,0,0,1,0,15,58.53,58.53,0,0,1,.8,5.1,5,5,0,0,1,5,1.1,104.08,104.08,0,0,1,20,0,105.3,105.3,0,0,1,35,1.1a5,5,0,0,1,4.2,4,56.73,56.73,0,0,1,.9,9.9A68.67,68.67,0,0,1,39.2,24.9Z"/><path class="cls-2" d="M16,22V8l12,7Z"/></g></g></svg>